<?xml version="1.0" encoding="utf-8"?>
<!-- Generator: Adobe Illustrator 19.1.0, SVG Export Plug-In . SVG Version: 6.00 Build 0)  -->
<svg version="1.1" xmlns="http://www.w3.org/2000/svg" xmlns:xlink="http://www.w3.org/1999/xlink" x="0px" y="0px"
	 viewBox="0 0 512 80" style="enable-background:new 0 0 512 80;" xml:space="preserve">
<style type="text/css">
	.st0{display:none;}
	.st1{display:inline;fill:#F8BBD4;}
	.st2{display:inline;fill:#FBDDE9;}
	.st3{display:inline;fill:#EF5392;}
	.st4{fill:#FFFFFF;}
	.st5{fill:#3EA1DA;}
	.st6{fill:#FDFDFE;}
	.st7{fill:#F05250;}
	.st8{fill:#006192;}
	.st9{fill:#FADDE8;}
	.st10{fill:#F8BCD3;}
	.st11{fill:#39A4DD;}
	.st12{fill:none;stroke:#EF5492;stroke-width:4;stroke-linecap:round;stroke-linejoin:round;stroke-miterlimit:10;}
	.st13{fill:none;stroke:#EF5492;stroke-width:2;stroke-miterlimit:10;}
	.st14{fill:none;stroke:#EF5492;stroke-width:2;stroke-miterlimit:10;stroke-dasharray:12.2512,4.0837;}
	.st15{fill:none;stroke:#EF5492;stroke-width:2;stroke-miterlimit:10;stroke-dasharray:12.7886,4.2628;}
	.st16{fill:none;stroke:#EF5492;stroke-width:2;stroke-miterlimit:10;stroke-dasharray:10.0477,3.3492;}
	.st17{fill:none;stroke:#EF5492;stroke-width:2;stroke-miterlimit:10;stroke-dasharray:11.0325,3.6775;}
	.st18{fill:none;stroke:#EF5492;stroke-width:2;stroke-miterlimit:10;stroke-dasharray:12.274,4.0913;}
	.st19{fill:none;stroke:#EF5492;stroke-width:2;stroke-miterlimit:10;stroke-dasharray:13.5339,4.5113;}
	.st20{fill:none;stroke:#EF5492;stroke-width:2;stroke-miterlimit:10;stroke-dasharray:9.5158,3.1719;}
	.st21{fill:none;stroke:#EF5492;stroke-width:2;stroke-miterlimit:10;stroke-dasharray:11.7457,3.9152;}
	.st22{fill:none;stroke:#EF5492;stroke-width:2;stroke-miterlimit:10;stroke-dasharray:11.4971,3.8324;}
	.st23{fill:none;stroke:#EF5492;stroke-width:2;stroke-miterlimit:10;stroke-dasharray:8.953,2.9843;}
	.st24{fill:none;stroke:#EF5492;stroke-width:2;stroke-miterlimit:10;stroke-dasharray:9.4294,3.1431;}
	.st25{fill:none;stroke:#EF5492;stroke-width:2;stroke-miterlimit:10;stroke-dasharray:13.3864,4.4621;}
	.st26{fill:none;stroke:#EF5492;stroke-width:2;stroke-miterlimit:10;stroke-dasharray:8.4197,2.8066;}
	.st27{fill:none;stroke:#EF5492;stroke-width:2;stroke-miterlimit:10;stroke-dasharray:9.1685,3.0562;}
	.st28{fill:none;stroke:#EF5492;stroke-width:2;stroke-miterlimit:10;stroke-dasharray:9.6834,3.2278;}
	.st29{fill:none;stroke:#EF5492;stroke-width:2;stroke-miterlimit:10;stroke-dasharray:9.4597,3.1532;}
	.st30{fill:#010101;}
	.st31{fill:#6A6A6A;}
	.st32{fill:#F8BBD4;}
	.st33{fill:#FBDDE9;}
	.st34{fill:#EF5392;}
</style>
<g id="Layer_14" class="st0">
</g>
<g id="sadfari">
	<path class="st30" d="M32,0c159.7,0,319.3,0,479,0c0.8,0,1,0.2,1,1c0,10.3,0,20.7,0,31c-5,0-10,0-15,0c-0.8,0-1,0.2-1,1
		c0,4.7,0,9.4,0,14.1c0,0.8-0.2,1-1,1c-4.7,0-9.4,0-14.1,0c-0.8,0-1,0.2-1,1c0,4.7,0,9.4,0,14.1c0,0.8-0.2,1-1,1
		c-36.7,0-73.4,0-110.1,0c-0.8,0-1-0.1-1-1c0-4.7,0-9.4,0-14.1c0-0.8-0.2-1-1-1c-4.7,0-9.4,0-14.1,0c-0.8,0-1-0.2-1-1
		c0-4.7,0-9.4,0-14.1c0-0.8-0.2-1-1-1c-4.7,0-9.4,0-14.1,0c-0.8,0-1-0.2-1-1c0-4.7,0-9.4,0-14.1c0-0.8-0.2-1-1-1c-4.7,0-9.3,0-14,0
		c-0.9,0-1.1,0.2-1.1,1.1c0,10,0,20,0,30c0,0.8-0.2,1-1,1c-4.7,0-9.4,0-14.1,0c-0.8,0-1,0.2-1,1c0,4.7,0,9.4,0,14.1c0,0.8-0.2,1-1,1
		c-4.7,0-9.4,0-14.1,0c-0.8,0-1,0.2-1,1c0,5,0,10,0,15c-37.3,0-74.7,0-112,0c0-5,0-10,0-15c0-0.8-0.2-1-1-1c-4.7,0-9.4,0-14.1,0
		c-0.8,0-1-0.2-1-1c0-4.7,0-9.4,0-14.1c0-0.8-0.2-1-1-1c-4.7,0-9.4,0-14.1,0c-0.8,0-1-0.2-1-1c0-4.7,0-9.4,0-14.1c0-0.8-0.2-1-1-1
		c-4.7,0-9.4,0-14.1,0c-0.8,0-1-0.2-1-1c0-4.6,0-9.2,0-13.9c0-1-0.3-1.2-1.2-1.2c-28.1,0-56.1,0-84.2,0c-3.6,0-7.1,0-10.7,0
		C32,10.7,32,5.4,32,0z M192,32c-5.3,0-10.7,0-16,0c0-5,0-10,0-15c0-0.8-0.2-1-1-1c-4.7,0-9.4,0-14.1,0c-0.7,0-1,0.2-1,1
		c0,4.7,0,9.4,0,14.1c0,0.8,0.2,1,1,1c5,0,10,0,15,0c0,5,0,10,0,15c0,0.8,0.2,1,1,1c5,0,10,0,15,0c0,5,0,10,0,15c0,0.8,0.3,1,1,1
		c4.7,0,9.3,0,14,0c0.8,0,1-0.2,1-1c0-5,0-10,0-15c5.3,0,10.7,0,16,0c0,5,0,10,0,15c0,0.8,0.2,1,1,1c4.7,0,9.4,0,14.1,0
		c0.7,0,1-0.2,1-1c0-4.7,0-9.4,0-14.1c0-0.8-0.2-1-1-1c-5,0-10,0-15,0c0-5,0-10,0-15c0-0.8-0.2-1-1-1c-5,0-10,0-15,0c0-5,0-10,0-15
		c0-0.8-0.3-1-1-1c-4.7,0-9.3,0-14,0c-0.8,0-1,0.2-1,1C192,22,192,27,192,32z M384,32c0-5,0-10,0-15c0-0.8-0.2-1-1-1
		c-4.7,0-9.4,0-14.1,0c-0.7,0-1,0.2-1,1c0,4.7,0,9.4,0,14.1c0,0.8,0.2,1,1,1C374,32,379,32,384,32c0,5,0,10,0,15c0,0.8,0.3,1,1,1
		c4.7,0,9.3,0,14,0c0.8,0,1-0.2,1-1c0-5,0-10,0-15c5.3,0,10.7,0,16,0c0,5,0,10,0,15c0,0.8,0.2,1,1,1c4.7,0,9.4,0,14.1,0
		c0.7,0,1-0.2,1-1c0-4.7,0-9.4,0-14.1c0-0.8-0.2-1-1-1c-5,0-10,0-15,0c0-5,0-10,0-15c0-0.8-0.3-1-1-1c-4.7,0-9.3,0-14,0
		c-0.8,0-1,0.2-1,1c0,5,0,10,0,15C394.7,32,389.3,32,384,32z"/>
	<path class="st30" d="M0,16c10.7,0,21.3,0,32,0c0,5,0,10.1,0,15.1c0,0.8-0.2,0.9-0.9,0.9C20.7,32,10.4,32,0,32C0,26.7,0,21.3,0,16z
		"/>
	<path class="st31" d="M224,48c5,0,10,0,15,0c0.8,0,1,0.2,1,1c0,4.7,0,9.4,0,14.1c0,0.7-0.2,1-1,1c-4.7,0-9.4,0-14.1,0
		c-0.8,0-1-0.2-1-1C224,58,224,53,224,48C224,48,224,48,224,48z"/>
	<path class="st31" d="M208,48c0,5,0,10,0,15c0,0.8-0.3,1-1,1c-4.7,0-9.3,0-14,0c-0.8,0-1-0.2-1-1c0-5,0-10,0-15c0,0,0,0,0,0
		C197.3,48,202.7,48,208,48L208,48z"/>
	<path class="st31" d="M416,32c5,0,10,0,15,0c0.8,0,1,0.2,1,1c0,4.7,0,9.4,0,14.1c0,0.7-0.2,1-1,1c-4.7,0-9.4,0-14.1,0
		c-0.8,0-1-0.2-1-1C416,42,416,37,416,32L416,32z"/>
	<path class="st31" d="M400,32c0,5,0,10,0,15c0,0.8-0.3,1-1,1c-4.7,0-9.3,0-14,0c-0.8,0-1-0.2-1-1c0-5,0-10,0-15l0,0
		C389.3,32,394.7,32,400,32C400,32,400,32,400,32z"/>
	<path class="st31" d="M224,48c-5.3,0-10.7,0-16,0c0,0,0,0,0,0c0-5.3,0-10.7,0-16c0,0,0,0,0,0c5,0,10,0,15,0c0.8,0,1,0.2,1,1
		C224,38,224,43,224,48C224,48,224,48,224,48z"/>
	<path class="st31" d="M176,32c5.3,0,10.7,0,16,0l0,0c0,5.3,0,10.7,0,16c0,0,0,0,0,0c-5,0-10,0-15,0c-0.8,0-1-0.2-1-1
		C176,42,176,37,176,32L176,32z"/>
	<path class="st31" d="M416,32c-5.3,0-10.7,0-16,0c0,0,0,0,0,0c0-5,0-10,0-15c0-0.8,0.3-1,1-1c4.7,0,9.3,0,14,0c0.8,0,1,0.2,1,1
		C416,22,416,27,416,32C416,32,416,32,416,32z"/>
	<path class="st31" d="M384,32c-5,0-10,0-15,0c-0.8,0-1-0.2-1-1c0-4.7,0-9.4,0-14.1c0-0.7,0.2-1,1-1c4.7,0,9.4,0,14.1,0
		c0.8,0,1,0.2,1,1C384,22,384,27,384,32C384,32,384,32,384,32z"/>
	<path class="st31" d="M192,32c0-5,0-10,0-15c0-0.8,0.3-1,1-1c4.7,0,9.3,0,14,0c0.8,0,1,0.2,1,1c0,5,0,10,0,15c0,0,0,0,0,0
		C202.7,32,197.3,32,192,32L192,32z"/>
	<path class="st31" d="M176,32c-5,0-10,0-15,0c-0.8,0-1-0.2-1-1c0-4.7,0-9.4,0-14.1c0-0.7,0.2-1,1-1c4.7,0,9.4,0,14.1,0
		c0.8,0,1,0.2,1,1C176,22,176,27,176,32C176,32,176,32,176,32z"/>
	<path class="st30" d="M192,32c5.3,0,10.7,0,16,0c0,5.3,0,10.7,0,16c-5.3,0-10.7,0-16,0C192,42.7,192,37.3,192,32z"/>
</g>
<g id="tbone_x5F_background">
</g>
<g id="tbone_x5F_foreground">
</g>
<g id="record_x5F_down">
</g>
<g id="record_x5F_up">
</g>
</svg>
