<?xml version="1.0" encoding="utf-8"?>
<!-- Generator: Adobe Illustrator 19.1.0, SVG Export Plug-In . SVG Version: 6.00 Build 0)  -->
<svg version="1.1" xmlns="http://www.w3.org/2000/svg" xmlns:xlink="http://www.w3.org/1999/xlink" x="0px" y="0px"
	 viewBox="0 0 1000 128" style="enable-background:new 0 0 1000 128;" xml:space="preserve">
<style type="text/css">
	.st0{display:none;}
	.st1{display:inline;fill:#F8BBD4;}
	.st2{display:inline;fill:#FBDDE9;}
	.st3{display:inline;fill:#EF5392;}
	.st4{fill:#FFFFFF;}
	.st5{fill:#3EA1DA;}
	.st6{fill:#FDFDFE;}
	.st7{fill:#F05250;}
	.st8{fill:#006192;}
	.st9{fill:#F8BBD4;}
	.st10{fill:#FBDDE9;}
	.st11{fill:#EF5392;}
</style>
<g id="Layer_14" class="st0">
</g>
<g id="sadfari">
	<path class="st4" d="M810,45.1c19.7-37.2,64.2-56.2,103.3-38.3c17.5,8,25.4,20,28.6,38.6c2,11.6-1.4,21.1-1.2,31.9
		c0.1,5.5,3,15.4,1.9,20.4c-8.1,36.3-84.4,26.8-107,21.3C796.6,109.4,792.2,78.8,810,45.1C821.2,24,807.4,50.1,810,45.1z"/>
	<path class="st5" d="M816.2,48.5c18.2-34.5,58.9-51.1,95-35.2c17.4,7.6,24.7,21.3,27,39.6c1.2,9.2-0.4,16.4-1.7,25.2
		c-0.9,6.4,2.7,10.8,2.3,16.3c-0.9,13.6-21.4,20.9-32.4,23.8c-20,5.3-41,3.7-61-0.6c-17.3-3.6-34.7-7.9-38.5-27.7
		C804.2,75.8,809.7,60.8,816.2,48.5C826.5,29.1,813.7,53.1,816.2,48.5z"/>
	<g>
		<path class="st4" d="M885.3,118.5c-0.2,0-0.3,0-0.5,0c-0.9,0.1-1.5-0.6-1.4-1.5c0.3-2.4,0.5-3.5,0.8-5.9c0.1-0.9,0.9-1.6,1.7-1.6
			c0,0,0,0,0.1,0c0.8-0.1,1.5,0.6,1.4,1.4c-0.2,2.3-0.2,3.5-0.4,5.8C886.9,117.6,886.1,118.4,885.3,118.5z M897.3,114.3
			c-0.3-2.1-0.4-3.2-0.7-5.3c-0.1-0.8,0.4-1.6,1.2-1.9c0,0,0,0,0.1,0c0.8-0.3,1.5,0.1,1.7,0.9c0.4,2.1,0.6,3.1,1.1,5.1
			c0.2,0.8-0.4,1.7-1.1,2c-0.1,0.1-0.3,0.1-0.4,0.2C898.2,115.6,897.4,115.1,897.3,114.3z M869.9,117.9c-0.2,0-0.3-0.1-0.5-0.1
			c-0.9-0.2-1.4-1.1-1-2c1-2.4,1.6-3.6,2.6-6c0.4-0.9,1.4-1.4,2.3-1.2c0,0,0,0,0,0c0.9,0.2,1.3,1,1,1.9c-0.8,2.4-1.3,3.6-2.1,6
			C871.8,117.5,870.8,118.1,869.9,117.9z M910.1,108.4c-1.2-1.8-1.7-2.7-2.5-4.5c-0.3-0.7,0-1.5,0.6-2c0,0,0,0,0,0
			c0.7-0.4,1.5-0.3,2,0.4c1.2,1.7,1.9,2.6,3.8,4.3c0.7,0.6,0.5,1.6-0.5,2c-0.2,0.1-0.4,0.2-0.6,0.3
			C911.8,109.3,910.6,109.1,910.1,108.4z M854.5,112.8c-0.2-0.1-0.3-0.2-0.5-0.2c-0.9-0.5-1-1.6-0.3-2.4c1.8-2.2,2.7-3.4,4.5-5.6
			c0.7-0.8,1.8-1.1,2.6-0.6c0,0,0,0,0,0c0.8,0.5,1,1.5,0.4,2.3c-1.6,2.3-2.4,3.5-4,5.8C856.6,112.9,855.4,113.3,854.5,112.8z
			 M922,100.1c-2.6-1.4-3.7-2.1-5.4-3.5c-0.6-0.5-0.7-1.4-0.3-2c0,0,0,0,0,0c0.4-0.6,1.1-0.6,1.7-0.1c1.6,1.3,2.5,2,4.9,3.3
			c0.9,0.5,1.7,1.4,1.5,2c0,0.1-0.1,0.2-0.1,0.3C924.1,100.6,922.9,100.7,922,100.1z M836.8,105.7c-0.2-0.1-0.4-0.3-0.5-0.4
			c-1-0.8-0.3-2.6,1.3-3.8c4.1-3.1,5.9-4.2,9-6.1c1.1-0.7,2.6-0.6,3.3,0.1c0,0,0,0,0,0c0.7,0.7,0.6,1.8-0.4,2.5
			c-2.7,2-4.3,3.2-8.1,6.5C839.9,105.7,837.7,106.4,836.8,105.7z M925,90.1c-1.3-1-1.9-1.5-3.2-2.5c-0.5-0.4-0.7-1.2-0.4-1.8
			c0,0,0,0,0,0c0.2-0.6,0.8-0.9,1.3-0.6c1.3,0.9,2,1.3,3.4,2.2c0.5,0.3,0.8,1.1,0.5,1.8c0,0.1-0.1,0.2-0.2,0.4
			C926.1,90.3,925.5,90.5,925,90.1z M824.9,88.7c-0.1-0.2-0.2-0.3-0.2-0.5c-0.4-1,0.5-2.1,2.1-2.6c4-1.1,6.1-1.7,10.1-2.8
			c1.4-0.4,2.9,0,3.3,0.9c0,0,0,0,0,0c0.5,0.9-0.2,2-1.7,2.4c-3.9,1.3-6,2-9.9,3.3C827.1,90,825.4,89.7,824.9,88.7z M927.6,79
			c-1.5-0.6-2.2-0.8-3.6-1.4c-0.5-0.2-0.9-0.9-0.9-1.6c0,0,0,0,0,0c0-0.7,0.4-1.1,0.9-1c1.4,0.4,2.1,0.7,3.6,1.1
			c0.6,0.2,1.1,0.9,1,1.6c0,0.1,0,0.3,0,0.4C928.7,78.8,928.2,79.3,927.6,79z M823.9,71.6c0-0.2,0.1-0.4,0.1-0.6
			c0.1-1.1,1.3-2,2.6-2.1c3.4-0.2,5.1-0.3,8.6-0.6c1.2-0.1,2.2,0.6,2.2,1.6c0,0,0,0,0,0c0,1-1,1.9-2.3,2.1c-3.6,0.5-5.5,0.7-9,1.2
			C824.7,73.4,823.8,72.7,823.9,71.6z M927.4,67.4c-1.5-0.1-2.2-0.2-3.5-0.3c-0.5,0-0.9-0.6-0.9-1.3c0-0.1,0-0.1,0-0.2
			c0-0.7,0.4-1.3,0.8-1.3c1.3,0,2,0,3.5,0c0.6,0,1.1,0.6,1.1,1.3c0,0.2,0,0.3,0,0.5C928.4,66.8,927.9,67.4,927.4,67.4z M836.2,57
			c-3.2-0.4-4.8-0.7-8-1.1c-1.3-0.2-2.1-1.2-1.7-2.3c0.1-0.2,0.1-0.4,0.2-0.6c0.4-1.1,1.7-1.7,2.9-1.4c3.1,0.7,4.6,1,7.6,1.7
			c1.1,0.2,1.7,1.2,1.5,2.2c0,0,0,0,0,0C838.5,56.5,837.4,57.1,836.2,57z M923.7,55.3C923.7,55.3,923.7,55.2,923.7,55.3
			c0.1-0.7,0.5-1.4,1.1-1.6c1.4-0.4,2.2-0.7,3.8-1.1c0.6-0.2,1,0.3,0.9,1c0,0.1,0,0.3-0.1,0.4c-0.1,0.7-0.7,1.4-1.3,1.5
			c-1.6,0.3-2.3,0.5-3.7,0.8C924,56.4,923.6,56,923.7,55.3z M841.6,42.7c-2.6-1.3-3.8-1.9-6.4-3.2c-1-0.5-1.5-1.7-1-2.6
			c0.1-0.2,0.2-0.3,0.3-0.5c0.5-0.9,1.7-1.2,2.7-0.6c2.5,1.5,3.7,2.2,6.2,3.7c0.9,0.5,1.3,1.6,0.8,2.5c0,0,0,0,0,0
			C843.6,42.9,842.5,43.2,841.6,42.7z M923.2,45.3C923.2,45.3,923.2,45.3,923.2,45.3c-0.2-0.7,0.1-1.5,0.7-1.8
			c1.5-0.9,2.3-1.3,3.8-2.2c0.6-0.3,1.2-0.1,1.4,0.6c0,0.1,0.1,0.2,0.1,0.4c0.2,0.7-0.2,1.5-0.8,1.8c-1.6,0.8-2.4,1.2-3.9,1.9
			C923.9,46.3,923.4,46,923.2,45.3z M849.6,31c-2.3-1.9-3.4-2.9-5.6-4.8c-0.9-0.8-1.1-2-0.4-2.6c0.1-0.1,0.3-0.2,0.4-0.4
			c0.7-0.7,2-0.5,2.9,0.3c2.1,2.1,3.2,3.1,5.3,5.1c0.8,0.7,0.8,1.8,0.1,2.5c0,0,0,0,0,0C851.6,31.7,850.4,31.7,849.6,31z
			 M918.4,36.2C918.4,36.2,918.4,36.2,918.4,36.2c-0.5-0.6-0.5-1.5-0.1-2c1.2-1.3,1.8-2,3-3.3c0.5-0.5,1.2-0.4,1.7,0.2
			c0.1,0.1,0.2,0.2,0.3,0.3c0.5,0.6,0.4,1.5,0,1.9c-1.3,1.2-1.9,1.8-3.2,3C919.6,36.9,918.9,36.8,918.4,36.2z M861.2,22.7
			c-1.6-2.3-2.4-3.5-4.1-5.8c-0.6-0.9-0.4-2,0.5-2.4c0.2-0.1,0.3-0.1,0.5-0.2c0.9-0.4,2.1,0.1,2.7,1c1.4,2.4,2.1,3.5,3.6,5.9
			c0.5,0.9,0.3,1.8-0.6,2.2c0,0,0,0,0,0C862.9,23.9,861.8,23.6,861.2,22.7z M910.5,28.5C910.5,28.5,910.4,28.5,910.5,28.5
			c-0.6-0.5-0.9-1.4-0.6-2c0.9-1.7,1.3-2.6,2.2-4.3c0.3-0.6,1.1-0.8,1.8-0.3c0.1,0.1,0.2,0.2,0.3,0.3c0.6,0.5,0.8,1.4,0.5,2
			c-1,1.6-1.5,2.4-2.4,4C911.9,28.9,911.1,29,910.5,28.5z M874.2,18.4c-0.9-2.4-1.3-3.6-2.1-6c-0.3-0.9,0.2-1.8,1.1-1.9
			c0.2,0,0.3,0,0.5-0.1c0.9-0.1,1.9,0.6,2.2,1.5c0.7,2.4,1,3.6,1.7,6c0.2,0.9-0.3,1.7-1.1,1.8c0,0,0,0,0,0
			C875.4,19.9,874.5,19.3,874.2,18.4z M900.5,22.8C900.5,22.8,900.5,22.8,900.5,22.8c-0.8-0.3-1.3-1.2-1.1-1.9
			c0.4-2.1,0.6-3.1,1-5.1c0.2-0.8,0.9-1.2,1.7-0.8c0.1,0.1,0.3,0.1,0.4,0.2c0.8,0.3,1.2,1.3,1,2c-0.5,2-0.8,3-1.4,4.9
			C902,22.7,901.2,23.1,900.5,22.8z M887.3,17.9c-0.2-2.3-0.2-3.5-0.4-5.8c-0.1-0.9,0.6-1.5,1.5-1.4c0.2,0,0.3,0.1,0.5,0.1
			c0.9,0.1,1.6,1,1.6,1.9c0,2.3,0,3.4,0,5.7c0,0.8-0.7,1.4-1.5,1.3c0,0,0,0-0.1,0C888,19.6,887.3,18.8,887.3,17.9z"/>
	</g>
	<path class="st6" d="M893.6,89L880,86.9c-2-0.3-4-0.4-6-0.2l-3.4,0.3c-3.7,0.3-7.3,1.4-10.6,3.1l-5.6,3l6.6-6.2
		c2.5-2.3,5.3-4.1,8.5-5.3L874,80c2.1-0.8,4.2-1.3,6.4-1.6l15.1-2.1"/>
	<path class="st7" d="M895.5,76.2l9.5,2.5c1.9,0.5,3.7,1.3,5.4,2.4l1,0.6c1.7,1.1,3.2,2.6,4.4,4.2l2.4,3.3l-2.2-1.6
		c-1.6-1.2-3.5-1.9-5.5-2.1l-0.8-0.1c-1.4-0.1-2.8,0-4.1,0.3l-12,3.2"/>
	<g>
		<path class="st8" d="M880,49.9c-0.4-0.6-1.3-0.6-1.7,0c-1.1,1.6-2.5,3-4.2,4.2c-3,2.1-6.3,2.9-9.1,2.4c0,0,0,0,0,0
			c-0.2,6.2,3.7,11.3,8.6,11.3c4.7,0,8.6-4.8,8.6-10.8C882.2,54.3,881.3,51.8,880,49.9z"/>
	</g>
	<g>
		<path class="st8" d="M902.4,51.6c0.3-0.5,1-0.5,1.3,0c0.9,1.6,2.2,3.1,3.7,4.3c2.4,1.9,5.1,2.7,7.4,2.5c0.2,0.2,0.3,0.3,0.5,0.4
			c0,6-3.3,10.8-7.4,10.8c-4.1,0-7.4-4.8-7.4-10.8C900.5,56.1,901.2,53.6,902.4,51.6z"/>
	</g>
</g>
<g id="tbone_x5F_background">
	<path class="st9" d="M643.5,6.2c18.6,4.3,31-6.2,36.4,19c4,18.6-11.4,34.2-17.4,50.6c-4,10.7-12.5,42.5-22.2,49.9
		c-4.6,3.6-5.2,1.5-13.7-10.7c-8-11.4-6.8-26.4-7-39.6c-0.3-16.7-2.8-25.9-11.5-40.4c-6.9-11.5-15.2-28.9,3.1-34.3
		c11.4-3.3,26.7,4.1,37.8,6.6c-3.4-0.8-6.9-1.6-10.3-2.4C640.2,5.5,641.8,5.8,643.5,6.2C657.4,9.4,626,2.2,643.5,6.2z"/>
</g>
<g id="tbone_x5F_foreground">
	<path class="st10" d="M440.4,6c17.3,4.1,28.9-5.9,33.8,18.3c3.7,18-10.6,33-16.2,48.8c-3.7,10.3-11.6,40.9-20.6,48.1
		c-4.3,3.4-4.8,1.4-12.8-10.4c-7.4-11-6.3-25.5-6.6-38.1c-0.3-16.1-2.6-25-10.7-38.9c-6.4-11-14.1-27.8,2.9-33
		c10.6-3.2,24.9,3.9,35.1,6.4c-3.2-0.8-6.4-1.5-9.6-2.3C437.4,5.3,438.9,5.6,440.4,6C453.4,9.1,424.2,2.1,440.4,6z"/>
	<path class="st11" d="M457.6,12.8c2-0.2,2.9,5.1,4.1,6.7c3.4,4.7,4.3,11.3,3.6,17.1c-1.6,12.6-10.4,25-14.8,36.5
		c-3.4,8.9-3.9,21.7-9.8,29.1c-6.6,8.3-7.2,10.3-11.7,0.3c-3.5-7.9-1.8-12.8-3-20.7c-0.9-5.6-2.6-10.2-3-16.1
		c-0.7-13.6-4.5-24-10.2-36c-4.3-9.1-4.3-21.9,8.7-17.7c3.6,1.1,7.2-2.5,10.2-0.3c1.2,0.8,4,4.8,6.8,11.5c2.5,6,1.6,17.9,2.7,18
		c1.9,0.2,1.3-28,3.2-27.9C448.7,13.5,453.1,13.4,457.6,12.8z"/>
</g>
<g id="record_x5F_down">
	<circle class="st9" cx="264" cy="64" r="64"/>
	<circle class="st10" cx="264" cy="62.5" r="62.5"/>
	<path class="st11" d="M319.3,62.6c2.8,6.1-6.5,13.7-8.6,19.7c-5,14.1-9.5,32-24.3,31.9c-8.8-0.1-13.2,5.7-22.4,5.7
		c-9.5,0-15.4-0.5-18.1-9c-8.6-27.3-14.3-5.6-21.4-10.4c-3.3-2.2-6.5-7.5-8.3-11c-4.3-8.1-4.2-17.3-5.6-27
		c-2.1-14.1,1.7-13.9,4.5-20.6c2.6-6.5,2.6-15.9,9.2-17.8c8.3-2.4,14.3-6.1,21.4-11.9c4.8-3.9,11.5-7,18.4-7
		c7.9,0,16.1,3.2,22.9,6.1c13.3,5.6,25.5,13,27,27.3C314.9,47,315.2,53.5,319.3,62.6z"/>
	<path class="st10" d="M262.4,97.6c7.4,3.5,3.6,27.1-8.7,8C248.7,97.9,245.6,89.7,262.4,97.6C264.9,98.8,260.8,96.9,262.4,97.6z"/>
</g>
<g id="record_x5F_up">
	<circle class="st9" cx="64" cy="64" r="64"/>
	<circle class="st10" cx="64" cy="61.1" r="61.1"/>
	<path class="st11" d="M118,61.1c2.8,6-6.3,13.3-8.4,19.2c-4.9,13.7-9.3,31.3-23.7,31.2c-8.6-0.1-12.9,5.6-21.9,5.6
		c-9.2,0-15.1-0.5-17.7-8.8c-8.4-26.7-13.9-5.5-20.9-10.2c-3.2-2.1-6.3-7.3-8.1-10.7c-4.2-7.9-4.1-16.9-5.5-26.3
		c-2-13.7,1.7-13.6,4.4-20.1c2.6-6.4,2.5-15.6,9-17.4c8.1-2.3,13.9-6,20.9-11.6c4.6-3.8,11.3-6.9,18-6.9c7.7,0,15.7,3.2,22.4,6
		c13,5.5,24.9,12.7,26.4,26.7C113.7,45.9,113.9,52.3,118,61.1z"/>
	<path class="st10" d="M62.4,95.3c7.3,3.4,3.5,26.5-8.5,7.8C49.1,95.6,46,87.6,62.4,95.3C64.9,96.5,60.9,94.6,62.4,95.3z"/>
</g>
</svg>
