<?xml version="1.0" encoding="utf-8"?>
<!-- Generator: Adobe Illustrator 19.1.0, SVG Export Plug-In . SVG Version: 6.00 Build 0)  -->
<svg version="1.1" xmlns="http://www.w3.org/2000/svg" xmlns:xlink="http://www.w3.org/1999/xlink" x="0px" y="0px"
	 viewBox="0 0 1632.6 294" style="enable-background:new 0 0 1632.6 294;" xml:space="preserve">
<style type="text/css">
	.st0{fill:#F8BBD4;}
	.st1{fill:#FBDDE9;}
	.st2{fill:#EF5392;}
	.st3{fill:#FFFFFF;}
	.st4{fill:#3EA1DA;}
	.st5{fill:#FDFDFE;}
	.st6{fill:#F05250;}
	.st7{fill:#006192;}
</style>
<g id="Button_2">
	<path class="st0" d="M1087.4,17.7c42.4,9.7,70.8-14,83,43.4c9,42.5-25.9,78.1-39.7,115.5c-9,24.5-28.4,96.9-50.6,113.9
		c-10.5,8.1-11.8,3.4-31.3-24.5c-18.2-26.1-15.5-60.3-16.1-90.2c-0.7-38.1-6.3-59.1-26.2-92.1c-15.7-26.1-34.7-65.9,7.1-78.1
		c26-7.6,60.9,9.3,86.2,15c-7.8-1.8-15.7-3.6-23.5-5.4C1079.9,16,1083.6,16.8,1087.4,17.7C1119.2,25,1047.5,8.5,1087.4,17.7z"/>
	<circle class="st0" cx="147" cy="147" r="147"/>
	<circle class="st1" cx="147" cy="140.2" r="140.2"/>
	<path class="st2" d="M271,140.3c6.3,13.7-14.5,30.6-19.3,44.1c-11.2,31.6-21.3,71.8-54.5,71.6c-19.7-0.1-29.7,12.9-50.2,12.9
		c-21.2,0-34.6-1.2-40.6-20.1c-19.3-61.3-32-12.7-48-23.3c-7.3-4.9-14.5-16.8-18.7-24.7c-9.7-18.1-9.5-38.9-12.7-60.5
		C22.4,108.7,31,109,37,94.1c5.9-14.6,5.7-35.7,20.7-40c18.7-5.3,32-13.7,48-26.7c10.7-8.7,25.9-15.8,41.3-15.8
		c17.8,0,36,7.3,51.4,13.8C228.3,38,255.6,54.5,259,86.7C261,105.4,261.7,120.1,271,140.3z"/>
	<path class="st1" d="M143.3,219c16.7,7.9,8,60.9-19.4,17.9C112.8,219.5,105.7,201.3,143.3,219C149.1,221.7,139.8,217.3,143.3,219z"
		/>
	<circle class="st0" cx="441" cy="147" r="147"/>
	<circle class="st1" cx="441" cy="143.6" r="143.6"/>
	<path class="st2" d="M568,143.7c6.5,14.1-14.9,31.4-19.8,45.2c-11.5,32.3-21.9,73.5-55.8,73.3c-20.2-0.1-30.4,13.2-51.4,13.2
		c-21.7,0-35.5-1.2-41.6-20.6c-19.8-62.8-32.8-13-49.2-23.9c-7.5-5-14.8-17.2-19.1-25.3c-9.9-18.5-9.7-39.8-13-61.9
		c-4.8-32.3,4-32,10.2-47.3c6.1-15,5.9-36.6,21.2-41c19.1-5.5,32.8-14,49.2-27.3c10.9-8.9,26.5-16.1,42.3-16.1
		c18.2,0,36.9,7.4,52.6,14.1c30.6,12.9,58.6,29.8,62.1,62.8C557.8,107.9,558.5,123,568,143.7z"/>
	<path class="st1" d="M437.2,224.2c17.1,8,8.2,62.3-19.9,18.3C405.9,224.8,398.7,206.1,437.2,224.2
		C443.1,227,433.6,222.6,437.2,224.2z"/>
	<path class="st1" d="M795.4,15.6c39.5,9.4,65.8-13.5,77.2,41.8c8.4,41-24.1,75.3-37,111.3c-8.4,23.6-26.5,93.4-47.1,109.8
		c-9.8,7.8-11,3.3-29.1-23.6c-17-25.1-14.5-58.1-14.9-87c-0.6-36.7-5.8-57-24.3-88.8c-14.6-25.2-32.3-63.5,6.6-75.3
		c24.2-7.4,56.7,8.9,80.2,14.5c-7.3-1.7-14.6-3.5-21.9-5.2C788.5,14,792,14.8,795.4,15.6C825.1,22.7,758.3,6.8,795.4,15.6z"/>
	<path class="st2" d="M834.6,31.3c4.7-0.6,6.7,11.7,9.3,15.3c7.7,10.8,9.9,25.7,8.2,39c-3.6,28.6-23.7,57-33.8,83.3
		c-7.8,20.3-8.8,49.5-22.3,66.4c-15,18.9-16.5,23.5-26.6,0.7c-7.9-18-4.1-29.1-6.8-47.3c-2-12.7-6-23.2-6.8-36.8
		c-1.7-30.9-10.3-54.8-23.3-82.1c-9.9-20.8-9.7-50,19.8-40.5c8.1,2.6,16.4-5.6,23.2-0.6c2.7,1.9,9.2,10.9,15.6,26.3
		c5.6,13.6,3.6,40.8,6.1,41.1c4.3,0.5,3-63.9,7.3-63.7C814.4,32.9,824.3,32.6,834.6,31.3z"/>
</g>
<g id="Layer_4">
	<path class="st3" d="M1320,106.7C1366.1,19.5,1470.6-25,1562.1,17c41,18.8,59.5,46.9,67.1,90.4c4.8,27.1-3.3,49.4-2.7,74.7
		c0.3,12.9,7.1,36.2,4.5,47.7c-19,85.2-197.7,62.8-250.7,49.9C1288.4,257.4,1278.2,185.6,1320,106.7
		C1346.2,57.2,1313.7,118.5,1320,106.7z"/>
	<path class="st4" d="M1334.4,114.6c42.7-80.8,138.1-119.7,222.7-82.5c40.7,17.9,57.8,49.8,63.2,92.8c2.7,21.6-1,38.5-3.9,59.1
		c-2.2,15.1,6.2,25.4,5.3,38.3c-2.2,31.9-50.3,48.9-75.9,55.7c-46.9,12.3-96.1,8.6-143-1.3c-40.5-8.5-81.4-18.4-90.3-64.9
		C1306.3,178.7,1319.1,143.5,1334.4,114.6C1358.5,69.1,1328.6,125.6,1334.4,114.6z"/>
</g>
<g id="Layer_5">
	<g>
		<path class="st3" d="M1496.3,278.7c-0.4,0-0.8,0.1-1.1,0.1c-2.1,0.2-3.6-1.4-3.3-3.5c0.7-5.5,1.1-8.3,1.9-13.8
			c0.3-2,2.1-3.7,4.1-3.9c0.1,0,0.1,0,0.1,0c2-0.1,3.4,1.3,3.3,3.3c-0.4,5.4-0.5,8.1-0.9,13.5
			C1500.2,276.5,1498.4,278.5,1496.3,278.7z M1524.6,268.9c-0.7-5-1-7.5-1.7-12.5c-0.2-1.8,1-3.8,2.8-4.4c0.1,0,0.1,0,0.1,0
			c1.8-0.6,3.5,0.3,3.9,2.1c1,4.8,1.5,7.2,2.5,12c0.4,1.8-0.8,4-2.7,4.7c-0.3,0.1-0.7,0.3-1,0.4
			C1526.6,271.8,1524.8,270.8,1524.6,268.9z M1460.2,277.4c-0.4-0.1-0.8-0.1-1.2-0.2c-2.2-0.4-3.2-2.6-2.3-4.8
			c2.4-5.6,3.7-8.5,6.1-14.1c0.9-2.1,3.2-3.3,5.3-2.9c0,0,0.1,0,0.1,0c2,0.4,3.1,2.4,2.4,4.5c-2,5.7-3,8.5-5,14.2
			C1464.8,276.3,1462.4,277.8,1460.2,277.4z M1554.5,255.1c-2.9-4.2-4.1-6.3-6-10.5c-0.7-1.6,0-3.6,1.5-4.6c0,0,0,0,0.1,0
			c1.5-1,3.5-0.7,4.6,0.8c2.8,4,4.6,6,8.8,10c1.6,1.5,1.1,3.7-1.3,4.8c-0.4,0.2-0.9,0.4-1.3,0.6
			C1558.5,257.2,1555.6,256.7,1554.5,255.1z M1424.1,265.4c-0.4-0.2-0.8-0.4-1.1-0.6c-2.1-1.1-2.4-3.7-0.8-5.7
			c4.2-5.2,6.4-7.9,10.6-13.1c1.5-1.9,4.3-2.5,6.2-1.5c0,0,0.1,0,0.1,0c1.9,1.1,2.4,3.4,1,5.4c-3.8,5.4-5.7,8.1-9.5,13.5
			C1429.1,265.6,1426.2,266.5,1424.1,265.4z M1582.3,235.7c-6.1-3.3-8.6-4.9-12.6-8.2c-1.5-1.2-1.7-3.3-0.8-4.6c0,0,0,0,0-0.1
			c0.9-1.3,2.6-1.5,4-0.3c3.6,3.1,5.9,4.6,11.6,7.6c2.2,1.2,3.9,3.2,3.5,4.6c-0.1,0.2-0.2,0.5-0.3,0.7
			C1587.3,236.9,1584.6,237,1582.3,235.7z M1382.6,248.7c-0.4-0.3-0.8-0.6-1.2-0.9c-2.3-1.8-0.7-6.1,3-8.9
			c9.5-7.2,13.8-9.8,21.1-14.4c2.7-1.6,6-1.5,7.7,0.2c0,0,0,0,0.1,0.1c1.7,1.7,1.4,4.2-0.9,5.9c-6.3,4.8-10.1,7.6-18.9,15.2
			C1390,248.7,1384.9,250.4,1382.6,248.7z M1589.4,212.3c-3-2.3-4.6-3.5-7.6-5.8c-1.1-0.9-1.5-2.8-1-4.3c0,0,0,0,0-0.1
			c0.6-1.5,1.9-2.1,3.1-1.3c3.1,2.1,4.7,3.1,8,5.2c1.2,0.8,1.8,2.7,1.1,4.2c-0.1,0.3-0.2,0.6-0.4,0.8
			C1592.1,212.6,1590.6,213.2,1589.4,212.3z M1354.9,209c-0.2-0.4-0.4-0.8-0.6-1.2c-1-2.2,1.3-5,4.9-6c9.3-2.6,14.3-3.9,23.6-6.5
			c3.4-0.9,6.7,0,7.8,2.1c0,0,0,0.1,0,0.1c1.1,2.1-0.6,4.6-3.9,5.7c-9.2,3.1-14.1,4.6-23.3,7.6C1360,212,1356,211.2,1354.9,209z
			 M1595.6,186.3c-3.6-1.3-5.3-1.9-8.5-3.2c-1.2-0.5-2.1-2.2-2-3.8c0,0,0,0,0-0.1c0.1-1.6,1-2.6,2.2-2.2c3.2,1,4.8,1.5,8.4,2.6
			c1.3,0.4,2.5,2.1,2.4,3.7c0,0.3,0,0.6,0,0.9C1598.2,185.8,1597,186.8,1595.6,186.3z M1352.5,168.8c0.1-0.5,0.1-0.9,0.2-1.4
			c0.3-2.5,3.1-4.8,6.2-5c7.9-0.5,12-0.8,20.1-1.4c2.9-0.2,5.2,1.5,5.3,3.8c0,0,0,0.1,0,0.1c0,2.3-2.4,4.5-5.4,4.9
			c-8.5,1.1-12.9,1.6-21.1,2.7C1354.5,173,1352.2,171.3,1352.5,168.8z M1595,158.9c-3.5-0.3-5.1-0.4-8.1-0.6
			c-1.1-0.1-2.1-1.5-2.1-3.2c0-0.1,0-0.2,0-0.4c0-1.7,0.8-3,2-3c3,0,4.6,0,8.1,0c1.3,0,2.5,1.4,2.5,3.1c0,0.4,0,0.7,0,1.1
			C1597.4,157.6,1596.3,159,1595,158.9z M1381.4,134.5c-7.5-1.1-11.2-1.6-18.8-2.6c-3-0.4-4.9-2.8-4-5.3c0.2-0.5,0.3-0.9,0.5-1.4
			c0.9-2.5,4-4,6.9-3.4c7.2,1.6,10.7,2.4,17.8,3.9c2.6,0.6,4.1,2.8,3.5,5.1c0,0,0,0.1,0,0.1C1386.6,133.3,1384,134.9,1381.4,134.5z
			 M1586.4,130.5C1586.4,130.5,1586.4,130.5,1586.4,130.5c0.1-1.7,1.2-3.3,2.5-3.7c3.4-1,5.1-1.6,8.9-2.6c1.4-0.4,2.4,0.7,2.2,2.3
			c0,0.3-0.1,0.6-0.1,0.9c-0.2,1.7-1.6,3.3-2.9,3.6c-3.7,0.8-5.4,1.2-8.6,2C1587.1,133.3,1586.3,132.2,1586.4,130.5z M1393.9,101.1
			c-6.1-3-9-4.6-15-7.6c-2.4-1.2-3.4-4-2.3-6.1c0.2-0.4,0.4-0.8,0.6-1.2c1.1-2.1,4-2.7,6.3-1.3c5.9,3.5,8.7,5.2,14.5,8.7
			c2.1,1.2,2.9,3.8,1.9,5.8c0,0,0,0.1,0,0.1C1398.6,101.5,1396,102.2,1393.9,101.1z M1585.2,107.2
			C1585.2,107.1,1585.2,107.1,1585.2,107.2c-0.4-1.6,0.3-3.5,1.6-4.2c3.5-2.1,5.3-3.1,9-5.2c1.4-0.8,2.9-0.1,3.4,1.5
			c0.1,0.3,0.2,0.6,0.2,0.9c0.4,1.6-0.5,3.4-1.9,4.1c-3.8,1.8-5.6,2.7-9.2,4.5C1586.9,109.4,1585.6,108.7,1585.2,107.2z
			 M1412.7,73.6c-5.3-4.5-7.9-6.8-13.2-11.3c-2.1-1.8-2.5-4.6-0.8-6.2c0.3-0.3,0.6-0.6,0.9-0.9c1.7-1.5,4.7-1.2,6.7,0.6
			c5,4.8,7.4,7.2,12.5,12c1.8,1.7,2,4.3,0.3,5.8c0,0,0,0-0.1,0.1C1417.5,75.3,1414.7,75.2,1412.7,73.6z M1574,85.8
			C1574,85.8,1573.9,85.8,1574,85.8c-1.2-1.4-1.2-3.4-0.1-4.6c2.8-3.1,4.2-4.6,7.1-7.7c1.1-1.2,2.9-1,4,0.5c0.2,0.3,0.4,0.5,0.6,0.8
			c1.1,1.4,1.1,3.5-0.1,4.5c-3,2.8-4.5,4.2-7.5,7.1C1576.8,87.5,1575.1,87.2,1574,85.8z M1439.8,54.2c-3.8-5.4-5.7-8.1-9.5-13.5
			c-1.5-2.1-1-4.6,1.2-5.5c0.4-0.2,0.8-0.3,1.2-0.5c2.1-0.9,4.9,0.2,6.2,2.3c3.3,5.5,5,8.3,8.4,13.8c1.2,2,0.6,4.3-1.3,5.2
			c0,0-0.1,0-0.1,0C1443.9,57,1441.2,56.2,1439.8,54.2z M1555.4,67.8C1555.3,67.8,1555.3,67.7,1555.4,67.8c-1.5-1.1-2.1-3.2-1.3-4.7
			c2.1-4,3.1-6,5.1-10c0.8-1.5,2.6-1.8,4.1-0.7c0.3,0.2,0.5,0.4,0.8,0.6c1.5,1.2,1.9,3.3,1.1,4.7c-2.3,3.8-3.4,5.7-5.7,9.4
			C1558.6,68.6,1556.8,68.9,1555.4,67.8z M1470.3,44.1c-2-5.7-3-8.5-5-14.1c-0.8-2.2,0.4-4.2,2.6-4.5c0.4,0,0.8-0.1,1.2-0.1
			c2.2-0.2,4.5,1.4,5.1,3.6c1.6,5.6,2.4,8.5,3.9,14.1c0.6,2.1-0.6,3.9-2.6,4.2c0,0-0.1,0-0.1,0C1473.3,47.6,1471,46.2,1470.3,44.1z
			 M1532,54.4C1532,54.4,1532,54.4,1532,54.4c-1.8-0.8-2.9-2.7-2.6-4.5c1-4.8,1.5-7.2,2.5-12.1c0.4-1.8,2.2-2.7,4-1.9
			c0.3,0.1,0.7,0.3,1,0.4c1.8,0.8,2.8,2.9,2.3,4.7c-1.3,4.6-1.9,7-3.2,11.6C1535.5,54.3,1533.8,55.1,1532,54.4z M1501,43.1
			c-0.4-5.4-0.6-8.1-0.9-13.6c-0.1-2.1,1.4-3.5,3.5-3.2c0.4,0.1,0.7,0.1,1.1,0.2c2,0.3,3.7,2.3,3.7,4.4c0,5.3,0,8,0,13.3
			c0,1.9-1.5,3.3-3.5,3c-0.1,0-0.1,0-0.2,0C1502.8,46.8,1501.1,45,1501,43.1z"/>
	</g>
</g>
<g id="Layer_6">
	<path class="st5" d="M1515.8,209.7l-31.7-5c-4.6-0.7-9.3-0.9-14-0.5l-7.9,0.6c-8.7,0.7-17.1,3.2-24.7,7.3l-13,7l15.5-14.6
		c5.7-5.4,12.5-9.6,19.9-12.4l10-3.7c4.9-1.8,9.9-3.1,15.1-3.8l35.4-5"/>
	<path class="st6" d="M1520.3,179.5l22.3,5.8c4.5,1.2,8.7,3,12.6,5.6l2.2,1.5c4,2.6,7.5,6,10.3,9.9l5.7,7.8l-5.2-3.7
		c-3.8-2.7-8.3-4.4-13-4.9l-1.9-0.2c-3.2-0.3-6.5,0-9.6,0.8l-28,7.6"/>
</g>
<g id="Layer_7">
	<g>
		<path class="st7" d="M1483.9,118c-1-1.4-3-1.3-3.9,0.1c-2.5,3.7-5.8,7.1-9.9,9.8c-7,4.8-14.8,6.7-21.3,5.7c0,0,0,0,0,0
			c-0.5,14.5,8.7,26.5,20.1,26.5c11.1,0,20.1-11.3,20.1-25.3C1489,128.3,1487.1,122.4,1483.9,118z"/>
	</g>
	<g>
		<path class="st7" d="M1536.6,122c0.7-1.2,2.4-1.1,3.1,0.1c2.2,3.8,5.1,7.3,8.7,10.1c5.7,4.5,12,6.4,17.4,5.9
			c0.4,0.4,0.7,0.6,1.1,1c0,14-7.8,25.3-17.4,25.3c-9.6,0-17.4-11.3-17.4-25.3C1532,132.5,1533.7,126.5,1536.6,122z"/>
	</g>
</g>
<g id="Button_1">
</g>
<g id="REC">
</g>
</svg>
