<?xml version="1.0" encoding="utf-8"?>
<!-- Generator: Adobe Illustrator 19.1.0, SVG Export Plug-In . SVG Version: 6.00 Build 0)  -->
<svg version="1.1" xmlns="http://www.w3.org/2000/svg" xmlns:xlink="http://www.w3.org/1999/xlink" x="0px" y="0px"
	 viewBox="0 0 588 294" style="enable-background:new 0 0 588 294;" xml:space="preserve">
<style type="text/css">
	.st0{fill:#F8BBD4;}
	.st1{fill:#FBDDE9;}
	.st2{fill:#EF5392;}
</style>
<g id="Button_2">
	<circle class="st0" cx="147" cy="147" r="147"/>
	<circle class="st1" cx="147" cy="140.2" r="140.2"/>
	<path class="st2" d="M271,140.3c6.3,13.7-14.5,30.6-19.3,44.1c-11.2,31.6-21.3,71.8-54.5,71.6c-19.7-0.1-29.7,12.9-50.2,12.9
		c-21.2,0-34.6-1.2-40.6-20.1c-19.3-61.3-32-12.7-48-23.3c-7.3-4.9-14.5-16.8-18.7-24.7c-9.7-18.1-9.5-38.9-12.7-60.5
		C22.4,108.7,31,109,37,94.1c5.9-14.6,5.7-35.7,20.7-40c18.7-5.3,32-13.7,48-26.7c10.7-8.7,25.9-15.8,41.3-15.8
		c17.8,0,36,7.3,51.4,13.8C228.3,38,255.6,54.5,259,86.7C261,105.4,261.7,120.1,271,140.3z"/>
	<path class="st1" d="M143.3,219c16.7,7.9,8,60.9-19.4,17.9C112.8,219.5,105.7,201.3,143.3,219C149.1,221.7,139.8,217.3,143.3,219z"
		/>
	<circle class="st0" cx="441" cy="147" r="147"/>
	<circle class="st1" cx="441" cy="143.6" r="143.6"/>
	<path class="st2" d="M568,143.7c6.5,14.1-14.9,31.4-19.8,45.2c-11.5,32.3-21.9,73.5-55.8,73.3c-20.2-0.1-30.4,13.2-51.4,13.2
		c-21.7,0-35.5-1.2-41.6-20.6c-19.8-62.8-32.8-13-49.2-23.9c-7.5-5-14.8-17.2-19.1-25.3c-9.9-18.5-9.7-39.8-13-61.9
		c-4.8-32.3,4-32,10.2-47.3c6.1-15,5.9-36.6,21.2-41c19.1-5.5,32.8-14,49.2-27.3c10.9-8.9,26.5-16.1,42.3-16.1
		c18.2,0,36.9,7.4,52.6,14.1c30.6,12.9,58.6,29.8,62.1,62.8C557.8,107.9,558.5,123,568,143.7z"/>
	<path class="st1" d="M437.2,224.2c17.1,8,8.2,62.3-19.9,18.3C405.9,224.8,398.7,206.1,437.2,224.2
		C443.1,227,433.6,222.6,437.2,224.2z"/>
</g>
<g id="Button_1">
</g>
<g id="REC">
</g>
<g id="Cube_Reference">
</g>
</svg>
